<?xml version="1.0" encoding="iso-8859-1"?>
<!-- Generator: Adobe Illustrator 19.0.0, SVG Export Plug-In . SVG Version: 6.00 Build 0)  -->
<svg version="1.1" id="Capa_1" xmlns="http://www.w3.org/2000/svg" xmlns:xlink="http://www.w3.org/1999/xlink" x="0px" y="0px"
	 viewBox="0 0 512 512" style="enable-background:new 0 0 512 512;" xml:space="preserve">
<polygon style="fill:#B8DBE0;" points="85.302,315.733 145.035,503.467 366.902,503.467 426.635,315.733 "/>
<path style="fill:#AFD6DB;" d="M145.035,503.467h221.867l59.733-187.733h-19.627c-87.723,77.653-204.331,114.859-279.748,131.866
	L145.035,503.467z"/>
<g>
	<rect x="247.435" y="315.733" style="fill:#A9CED4;" width="17.067" height="187.733"/>
	<polygon style="fill:#A9CED4;" points="178.793,315.733 161.564,315.733 187.369,503.467 204.598,503.467 	"/>
	<polygon style="fill:#A9CED4;" points="350.91,315.733 333.553,315.733 298.541,503.467 315.889,503.467 	"/>
</g>
<path style="fill:#F29C9B;" d="M428.47,227.132l-40.883-3.268c21.325-12.655,28.348-40.209,15.693-61.534
	c-7.211-12.151-19.721-20.19-33.766-21.717l-41.813-4.642c16.06-13.372,18.244-37.239,4.864-53.299
	c-5.325-6.4-12.621-10.863-20.736-12.698l-28.22-6.485c-18.492-4.267-30.029-22.716-25.762-41.207
	c1.161-5.026,3.43-9.719,6.656-13.747h-25.6c-37.7,0-68.267,30.566-68.267,68.267c0,15.855,5.521,31.223,15.616,43.452
	l-21.222-2.355c-30.95-3.465-58.846,18.825-62.31,49.766c-1.314,11.767,1.101,23.646,6.921,33.963l-5.12-0.401
	c-31.573-2.5-59.196,21.06-61.696,52.634c-2.5,31.573,21.06,59.196,52.634,61.696c1.51,0.119,3.021,0.179,4.523,0.179h324.949
	c24.508-0.026,44.356-19.908,44.331-44.416C469.242,248.218,451.493,229.001,428.47,227.132z"/>
<g>
	<path style="fill:#F28685;" d="M213.302,128L213.302,128c0.333-4.702,4.42-8.243,9.122-7.902l102.443,7.322
		c4.702,0.333,8.243,4.42,7.902,9.122l0,0c-0.333,4.702-4.42,8.243-9.122,7.902l-102.443-7.322
		C216.51,136.789,212.969,132.702,213.302,128z"/>
	<path style="fill:#F28685;" d="M136.502,204.8L136.502,204.8c0.358-4.702,4.454-8.218,9.156-7.859l243.977,18.569
		c4.702,0.358,8.218,4.454,7.859,9.156l0,0c-0.358,4.702-4.454,8.218-9.156,7.859l-243.977-18.569
		C139.667,213.598,136.143,209.493,136.502,204.8z"/>
</g>
<g>
	<rect x="196.235" y="59.733" style="fill:#F0614A;" width="17.067" height="17.067"/>
	<rect x="247.435" y="85.333" style="fill:#F0614A;" width="17.067" height="17.067"/>
	<rect x="273.035" y="153.6" style="fill:#F0614A;" width="17.067" height="17.067"/>
	<rect x="145.035" y="162.133" style="fill:#F0614A;" width="17.067" height="17.067"/>
	<rect x="349.835" y="179.2" style="fill:#F0614A;" width="17.067" height="17.067"/>
	<rect x="85.302" y="238.933" style="fill:#F0614A;" width="17.067" height="17.067"/>
	<rect x="204.768" y="238.933" style="fill:#F0614A;" width="17.067" height="17.067"/>
	<rect x="127.968" y="273.067" style="fill:#F0614A;" width="17.067" height="17.067"/>
	<rect x="290.102" y="264.533" style="fill:#F0614A;" width="17.067" height="17.067"/>
	<rect x="401.035" y="247.467" style="fill:#F0614A;" width="17.067" height="17.067"/>
</g>
<path d="M77.809,320.341l59.093,185.685c1.118,3.55,4.412,5.973,8.132,5.973h221.867c3.721,0,7.014-2.423,8.132-5.973
	l58.027-182.485c28.86-4.429,48.666-31.411,44.237-60.271c-3.721-24.286-23.689-42.803-48.179-44.689l-21.402-1.707
	c6.758-9.114,10.394-20.164,10.385-31.505c0.026-27.307-20.506-50.244-47.65-53.231l-26.342-2.927
	c3.755-6.793,5.726-14.43,5.726-22.187c0.077-21.7-14.925-40.55-36.087-45.355l-28.22-6.519
	c-13.901-3.2-22.571-17.058-19.371-30.959c0.87-3.78,2.586-7.313,5.009-10.342c2.935-3.686,2.33-9.054-1.357-11.989
	C268.299,0.657,266.43,0,264.502,0h-25.6c-42.419,0-76.8,34.381-76.8,76.8c0,11.426,2.551,22.699,7.458,33.015l-3.593-0.401
	c-35.635-3.985-67.746,21.675-71.731,57.31c-0.973,8.695-0.179,17.493,2.338,25.873c-36.309,1.843-64.247,32.768-62.404,69.077
	C35.518,288.256,52.738,311.407,77.809,320.341L77.809,320.341z M96.967,324.267h66.219l23.27,170.667h-35.183L96.967,324.267z
	 M331.062,324.267l-31.01,170.667h-35.55V324.267H331.062z M247.435,494.933h-43.75l-23.27-170.667h67.021V494.933z
	 M360.664,494.933h-43.255l31.027-170.667h66.56L360.664,494.933z M66.87,222.515c8.951-8.346,20.745-12.971,32.981-12.945
	c1.331,0,2.679,0.051,4.028,0.162l5.12,0.401c3.149,0.282,6.195-1.237,7.868-3.917c1.698-2.654,1.792-6.033,0.247-8.781
	c-12.971-23.031-4.821-52.224,18.219-65.195c8.747-4.924,18.816-6.98,28.791-5.862l21.231,2.355c3.465,0.427,6.827-1.34,8.448-4.429
	c1.647-3.055,1.28-6.81-0.93-9.489c-20.992-25.446-17.391-63.095,8.055-84.087c10.692-8.823,24.115-13.645,37.973-13.662h11.503
	c-7.125,22.622,5.444,46.737,28.066,53.862c1.058,0.333,2.133,0.631,3.226,0.879l28.211,6.511
	c15.693,3.43,25.626,18.935,22.187,34.628c-1.195,5.47-3.942,10.47-7.91,14.413l-110.276-7.893l-1.212,17.067l119.339,8.533
	l36.531,4.053c18.483,2.039,32.469,17.655,32.469,36.25c-0.009,11.947-5.948,23.108-15.838,29.798L137.15,196.267l-1.297,17.067
	l261.001,19.84l0,0l30.933,2.475c19.721,1.673,34.355,19.012,32.691,38.733c-1.562,18.492-16.99,32.734-35.55,32.819H99.987
	c-26.948-0.026-48.785-21.871-48.819-48.819C51.108,244.745,56.809,231.714,66.87,222.515z"/>
<rect x="196.235" y="59.733" width="17.067" height="17.067"/>
<rect x="247.435" y="85.333" width="17.067" height="17.067"/>
<rect x="273.035" y="153.6" width="17.067" height="17.067"/>
<rect x="145.035" y="162.133" width="17.067" height="17.067"/>
<rect x="349.835" y="179.2" width="17.067" height="17.067"/>
<rect x="85.302" y="238.933" width="17.067" height="17.067"/>
<rect x="204.768" y="238.933" width="17.067" height="17.067"/>
<rect x="127.968" y="273.067" width="17.067" height="17.067"/>
<rect x="290.102" y="264.533" width="17.067" height="17.067"/>
<rect x="401.035" y="247.467" width="17.067" height="17.067"/>
<g>
</g>
<g>
</g>
<g>
</g>
<g>
</g>
<g>
</g>
<g>
</g>
<g>
</g>
<g>
</g>
<g>
</g>
<g>
</g>
<g>
</g>
<g>
</g>
<g>
</g>
<g>
</g>
<g>
</g>
</svg>
